# xmcd
#
# Track frame offsets:
#	150
#	17010
#	35411
#	53605
#	68145
#	82707
#	98814
#	116732
#	133656
#	147942
#	160637
#	177605
#	193033
#	204890
#	224081
#	240351
#	257915
#	274736
#	288419
#	302071
#	317329
#
# Disc length: 4521 seconds
#
# Revision: 0
# Processed by: cddbd v1.5.2PL0 Copyright (c) Steve Scherf et al.
# Submitted via: EasyCDDAExtractor 12.0.0.1
#
DISCID=2811a715
DTITLE=Various Artist - Na dobrą droge
DYEAR=2004
DGENRE=Country
TTITLE0=Lonstar - Radio
TTITLE1=Tomasz Szwed and Full Service - Poradnik poczatkujacego kierowcy
TTITLE2=Alicja Boncol - Mam kilometrów paranoje
TTITLE3=Gang Marcela - Jade juz
TTITLE4=Texway - W droge troche szczescia wez
TTITLE5=Black Horse - Najprostsza jest droga do domu
TTITLE6=Honky Tonk Brothers - Road-life Boogi
TTITLE7=Grupa Furmana - Odmierzam asfaltem godziny
TTITLE8=Alicja Boncol - Baby Doll
TTITLE9=Tomasz Szwed and Zespól Opieki Zdrowotnej - Umów sie ze mna
TTITLE10=Zayazd - Easy Rider
TTITLE11=Colorado Band - Kierowca szefowej w srednim wieku
TTITLE12=Black Horse - Wyhamuj i wrzuc na luz
TTITLE13=The Medley - Trzy kilometry
TTITLE14=Honky Tonk Brothers - Pusta droga
TTITLE15=Vermond City - A gdy w domu jestem juz
TTITLE16=Conner - Jak to u szoferów
TTITLE17=Blue Road - Za zakretem pejzaz ten sam
TTITLE18=Syrbacy - Ja jestem kierowca zawodowym
TTITLE19=Country House Family - Kowboje asfaltowi
TTITLE20=Lonstar - Dlugi kurs
EXTD=
EXTT0=
EXTT1=
EXTT2=
EXTT3=
EXTT4=
EXTT5=
EXTT6=
EXTT7=
EXTT8=
EXTT9=
EXTT10=
EXTT11=
EXTT12=
EXTT13=
EXTT14=
EXTT15=
EXTT16=
EXTT17=
EXTT18=
EXTT19=
EXTT20=
PLAYORDER=
